<?xml version="1.0" encoding="UTF-8"?>
<svg id="Layer_2" data-name="Layer 2" xmlns="http://www.w3.org/2000/svg" viewBox="0 0 684.7 929">
  <defs>
    <style>
      .cls-1 {
        fill: #edc4bc;
      }

      .cls-2 {
        fill: #7d6042;
      }

      .cls-3 {
        fill: #333;
      }

      .cls-4 {
        fill: #db8058;
      }

      .cls-5 {
        fill: #771d1d;
      }

      .cls-6 {
        fill: #47060e;
      }

      .cls-7 {
        stroke: #333;
        stroke-width: 13.33px;
      }

      .cls-7, .cls-8 {
        fill: none;
        stroke-miterlimit: 10;
      }

      .cls-9 {
        opacity: .99;
      }

      .cls-8 {
        stroke: #664a31;
        stroke-width: 11.29px;
      }
    </style>
  </defs>
  <g id="Graphic_Elements" data-name="Graphic Elements">
    <g id="Graphic_Elements-2" data-name="Graphic Elements" class="cls-9">
      <path class="cls-1" d="m504.76,618c-2.36,2.75-4.74,5.64-6.97,8.82-3.54,5.03-6.61,10.77-6.54,16.92.06,5.89,3.31,11.74,8.46,14.61,5.15,2.87,12.03,2.47,16.62-1.24,1.53-1.24,2.8-2.79,4.47-3.83,2.68-1.66,6.27-1.73,9.02-.17,15.59,8.87-1.98,36.39.94,49.6,2.02,9.16,7.62,18.05,16.32,21.55,13.1,5.28,28.45-3.75,35.12-16.19,7.88-14.69,6.95-29.51,2.3-44.99-2.18-7.28-14.59-28.14-5.38-34.46,5.09-3.49,9.18,3.05,14.68,3.42,7.31.49,14.58-6.05,12.91-13.69-2.18-9.97-17.5-12.59-19.49-22.6-1.98-9.97,5.39-14.63,11.82-20.05,5.78-4.88,9.19-12.93,7.27-20.25-1.92-7.32-9.92-12.91-17.23-10.98-3.17.83-5.91,2.86-9.06,3.74-5.95,1.65-12.51-1.21-16.53-5.91-7.67-8.95-5.44-22.44-21.05-22.53-11.07-.07-19.63,11.16-21.19,21.29-1.92,12.48,0,25.31,1.39,37.74,2.07,18.34-7.78,27.5-17.85,39.22Z"/>
      <path class="cls-2" d="m542.12,461c-.67,5.63-1.68,11.15-3.4,16.43-5.95,18.28-13.29,36.23-21.25,53.72-15.74,34.6-35.15,67.12-57.95,97.52-20.77,27.14-45.62,52.92-76.08,69.13-11.51,6.13-28.18,14.3-41.86,12.86-120.03-12.68-187.44-202.87-187.44-202.87l-2.83-8.47s-49.1-142.2,17.51-237.01c11.65,2.24,26.28,7.61,37.21,12.21,60.12,25.31,119.91,51.38,180.19,76.3,30.78,12.72,61.69,25.14,92.82,37,15.23,5.8,30.49,11.54,45.86,16.96,13.22,4.66,22.4,8.16,20.08,24.35-1.49,10.37-1.59,21.3-2.86,31.87Z"/>
      <path class="cls-5" d="m295.42,587.23c5.91-5.05,11.4-10.66,17.72-15.2,3.68-2.64,7.84-4.96,12.36-5.09,3.64-.11,7.06,1.8,9.63,4.25,1.67,1.59,4.23,10.16,6.82,8.99,2.19-.99,3.73-8.38,5.59-10,2.68-2.33,6.2-4.02,9.77-4.24,4.57-.29,8.91,1.79,13.01,3.82.14.07.29.14.43.22,4.7,2.33,36.03,33.2,37.32,31.86-6.02,6.24-11.72,13.75-18.11,19.85-6.6,6.31-12.93,11.76-21.18,15.71-14.73,7.06-32.27,9.08-47.56,3.36-17.03-6.37-29.84-20.92-43.57-32.15-2.31-1.89-7.8-5.01-2.99-7.84,4.48-2.64,9.15-4.97,13.45-7.89,2.56-1.73,4.97-3.64,7.31-5.65Z"/>
      <path class="cls-3" d="m347.1,22.22c85.89,0,165.64,33.73,224.56,94.97,28.58,29.7,50.98,64.44,66.59,103.23,16.08,39.97,24.23,82.6,24.23,126.69v559.68H22.22V347.1C22.22,167.96,167.96,22.22,347.1,22.22m0-22.22C155.71,0,0,155.71,0,347.1v581.9h684.7V347.1C684.7,155.71,538.5,0,347.1,0h0Z"/>
      <path class="cls-6" d="m413.94,563.96c5.5,0,9.96,4.46,9.96,9.96s-4.46,9.96-9.96,9.96-9.96-4.46-9.96-9.96,4.46-9.96,9.96-9.96Z"/>
      <path class="cls-2" d="m458.44,744.31v-85.21l1.33-6.72c-57.15,67.93-105.92,74.68-118.19,74.68-47.05-4.51-86.01-33.76-116-67.65v89.22s6.2,86.26-181.6,73.32v65.05h599.92v-67.93s-184.36,14.34-185.45-74.76Z"/>
      <path class="cls-8" d="m332.92,430.21c-1.58,34.72-2.16,57.67-1.32,92.42.03,1.2.12,2.54,1,3.34.8.73,1.99.78,3.08.8,2.77.03,21.06.06,23.83.1"/>
      <path class="cls-3" d="m343.94,42.76h0c-165.66,0-299.96,134.3-299.96,299.96,0,0,114.98,152.22,599.92,139.14v-139.14c0-165.66-134.3-299.96-299.96-299.96Zm167.22,204.62c-55.04,16.63-103.45,22.65-144.67,22.65-105.18,0-163.67-39.2-167.01-41.5l3.86-5.6,3.85-5.61c1.09.75,111.21,74.06,299.79,17.11,34.03-11.68,60.16-32,60.42-32.2l8.39,10.7c-1.13.89-28.22,21.95-64.64,34.45Z"/>
      <path class="cls-7" d="m343.93,42.76h0c165.55,0,299.96,134.41,299.96,299.96v544.27H43.97V342.72c0-165.55,134.41-299.96,299.96-299.96Z"/>
      <circle class="cls-4" cx="542.89" cy="494.94" r="21.03" transform="translate(-120.48 810.6) rotate(-67.8)"/>
      <path class="cls-1" d="m156.4,598.21c10.84,17.82,24.55,57.14,25.16,77.75.45,15.15-9.89,31.56-25,32.74-9.51.75-18.97-4.86-23.78-13.1-4.8-8.24-5.18-18.68-1.95-27.66,1.75-4.85,4.49-9.42,5.17-14.54,5.31-40.26-48.2,7.19-63.69-11.93-5.77-7.12-6.46-17.94-1.65-25.74,5.39-8.74,15.83-12.59,25.04-17.13,9.21-4.54,18.79-11.93,19.07-22.19.26-9.56-7.77-17.59-8.64-27.12-2.11-23.18,31.39-35.3,47.41-21.9,8.16,6.82,11.78,18.61,8.86,28.84-2.25,7.88-7.87,14.43-10.42,22.22-2.41,7.36.67,13.61,4.41,19.76Z"/>
      <circle class="cls-4" cx="137.92" cy="494.94" r="21.03" transform="translate(-341.93 311.27) rotate(-53.48)"/>
    </g>
  </g>
</svg>