<?xml version="1.0" encoding="utf-8"?>
<!-- Generator: Adobe Illustrator 27.4.0, SVG Export Plug-In . SVG Version: 6.00 Build 0)  -->
<svg version="1.1" id="behance" xmlns="http://www.w3.org/2000/svg" xmlns:xlink="http://www.w3.org/1999/xlink" x="0px" y="0px"
	 viewBox="0 0 211.2 132" style="enable-background:new 0 0 211.2 132;" xml:space="preserve">
<style type="text/css">
	.st0{fill:#333333;}
</style>
<g>
	<path class="st0" d="M70.3,51.9c4.2-3,6.3-7.7,6.3-14.2c0-3.5-0.7-6.5-2.1-8.9c-1.4-2.4-3.3-4.3-5.6-5.6c-2.2-1.3-4.6-2.1-7.3-2.6
		c-2.3-0.4-4.9-0.7-7.7-0.7H24v36h32C61.7,56,66.5,54.6,70.3,51.9z M32,28h21.9c2.4,0,4.4,0.2,6.3,0.5c1.8,0.3,3.3,0.8,4.7,1.7
		c1.1,0.6,2,1.5,2.6,2.6c0.7,1.2,1,2.8,1,4.9c0,5.5-2.2,7.1-3,7.6l0,0C63.2,47.1,60,48,56,48H32V28z"/>
	<path class="st0" d="M92.3,59.8c2.8-2.1,5.1-4.6,7-7.3c3.3-4.8,4.9-10.8,4.9-17.9c0-6.4-1.1-11.9-3.2-16.3c-2.2-4.6-5.4-8.3-9.4-11
		c-3.9-2.7-8.6-4.6-13.9-5.7C72.6,0.5,67,0,60.7,0H0v132h62.4c5.9,0,11.6-0.7,17.2-2.2c5.7-1.5,10.9-3.9,15.3-7
		c4.6-3.3,8.3-7.6,11-12.6c2.7-5.1,4.1-11.2,4.1-18.1c0-8.6-2.1-16-6.3-22.2C100.8,65.7,97,62.3,92.3,59.8z M98.8,106.4
		c-2.1,4-4.9,7.3-8.5,9.8c-3.7,2.6-7.9,4.5-12.8,5.8c-4.9,1.3-9.9,1.9-15.1,1.9H8V8h52.7C66.5,8,71.4,8.5,76,9.5l0,0
		c4.2,0.9,8,2.4,11,4.5c2.9,2,5.1,4.6,6.7,7.9c1.6,3.3,2.4,7.6,2.4,12.8c0,5.4-1.2,9.9-3.5,13.4c-2.4,3.6-6.1,6.6-11,8.9l-9.5,4.5
		l10.1,2.9c6.7,1.9,11.5,5.2,14.7,10c3.3,4.9,4.9,10.6,4.9,17.7C101.9,97.6,100.8,102.5,98.8,106.4z"/>
	<path class="st0" d="M56.5,68H24v44h32c3.1,0,5.9-0.3,8.5-0.9c3-0.7,5.7-1.9,7.8-3.4c2.4-1.7,4.3-3.9,5.7-6.7
		c1.4-2.8,2.1-6.1,2.1-10.3c0-7.9-2.3-13.8-6.8-17.5C68.9,69.7,63.3,68,56.5,68z M70.9,97.4c-0.8,1.6-1.8,2.8-3.2,3.8
		c-1.3,1-2.9,1.7-4.9,2.1l0,0c-2,0.5-4.2,0.7-6.7,0.7H32V76h24.5c4.9,0,8.9,1.1,11.6,3.4c2.6,2.1,3.9,5.9,3.9,11.3
		C72.1,93.6,71.7,95.8,70.9,97.4z"/>
	<path class="st0" d="M186.5,72c-0.6-6.9-2.9-12.7-6.6-17.1c-3.7-4.2-9.7-6.6-16.9-6.6c-4.6,0-8.5,0.9-11.7,2.6
		c-3,1.6-5.5,3.7-7.5,6.2c-1.9,2.4-3.2,5.1-4,7.9c-0.7,2.6-1.1,4.9-1.3,7l-0.2,4.2h48.5L186.5,72z M147.2,68.3
		c0.1-0.4,0.2-0.7,0.3-1.1c0.5-1.9,1.4-3.6,2.6-5.2c1.3-1.6,2.9-3,5-4.1c2-1.1,4.6-1.6,7.9-1.6c4.9,0,8.7,1.4,10.8,3.8
		c1.9,2.2,3.2,4.9,4,8.2C177.8,68.3,147.2,68.3,147.2,68.3z"/>
	<path class="st0" d="M180.1,97.6c-0.6,1.8-2.3,3.7-5,5.6c-2.9,2-6.5,3-10.6,3c-5.8,0-10.2-1.4-13.1-4.2l0,0
		c-2.2-2.1-3.9-5.8-4.5-10h63.9l0.3-3.7c0.5-7.2-0.1-14.1-1.8-20.7c-1.8-6.7-4.6-12.7-8.5-17.9c-4-5.3-9.2-9.6-15.3-12.7
		c-6.2-3.1-13.5-4.7-21.7-4.7c-7.3,0-14.1,1.3-20.2,3.9c-6,2.5-11.3,6.1-15.8,10.6c-4.3,4.4-7.8,9.7-10.2,15.9
		c-2.4,6.1-3.6,12.7-3.6,19.7c0,7.2,1.2,13.9,3.5,20c2.3,6.1,5.7,11.4,10,15.9c4.4,4.5,9.6,7.9,15.8,10.3c6.2,2.4,13,3.6,20.5,3.6
		c10.9,0,20.3-2.5,28-7.4c7.9-4.9,13.8-13.2,17.6-24.6l1.8-5.3h-30.1L180.1,97.6z M186.5,102.8h13.2c-3.1,6.9-7.1,11.8-12.3,15.1
		C181,122,173,124,163.7,124c-6.5,0-12.4-1-17.6-3c-5.1-2-9.4-4.8-13-8.4c-3.6-3.7-6.2-8-8.2-13.1c-2-5.1-2.9-10.9-2.9-17.1
		c0-6,1-11.6,3-16.7c2.1-5.2,4.8-9.6,8.5-13.2c3.7-3.7,8.1-6.7,13.2-8.8c5.1-2.1,10.8-3.2,17.1-3.2c6.9,0,13,1.3,18.1,3.9
		c5.1,2.5,9.3,6,12.5,10.4c3.3,4.3,5.7,9.4,7.2,15.1c1.2,4.6,1.8,9.4,1.7,14.4h-64.6v4c0,7.9,2.8,15.5,7.3,19.8
		c4.4,4.2,10.7,6.4,18.6,6.4c5.7,0,10.8-1.5,15.1-4.3C182.7,107.7,185,105.3,186.5,102.8z"/>
	<path class="st0" d="M192,8h-60v20h60V8z M184,20h-44v-4h44V20z"/>
</g>
</svg>
