<?xml version="1.0" encoding="utf-8"?>
<!-- Generator: Adobe Illustrator 27.4.0, SVG Export Plug-In . SVG Version: 6.00 Build 0)  -->
<svg version="1.1" id="Layer_1" xmlns:serif="http://www.serif.com/"
	 xmlns="http://www.w3.org/2000/svg" xmlns:xlink="http://www.w3.org/1999/xlink" x="0px" y="0px" viewBox="0 0 558 558"
	 style="enable-background:new 0 0 558 558;" xml:space="preserve">
<style type="text/css">
	.st0{fill:#333333;}
</style>
<path class="st0" d="M515.8-1.5c22.8,0,41.3,18,41.3,40.2v477.6c0,22.2-18.5,40.3-41.3,40.3H40.2c-22.7,0-41.2-18-41.2-40.3V38.8
	C-1,16.5,17.4-1.5,40.2-1.5C40.2-1.5,515.8-1.5,515.8-1.5z M474.6,474.1V328c0-71.7-15.5-126.9-99.3-126.9
	c-40.3,0-67.3,22.1-78.3,43h-1.1v-36.4h-79.4v266.4h82.7V342.4c0-34.7,6.6-68.4,49.6-68.4c42.5,0,43,39.7,43,70.6v129.5H474.6
	L474.6,474.1z M164.6,207.8H81.7v266.4h82.9V207.8z M123.1,75.4c-26.6,0-48,21.5-48,48c0,26.5,21.4,48,48,48c26.5,0,48-21.5,48-48
	C171.1,96.9,149.6,75.4,123.1,75.4z"/>
</svg>
