<?xml version="1.0" encoding="utf-8"?>
<!-- Generator: Adobe Illustrator 27.3.1, SVG Export Plug-In . SVG Version: 6.00 Build 0)  -->
<svg version="1.1" id="Layer_1" xmlns:serif="http://www.serif.com/"
	 xmlns="http://www.w3.org/2000/svg" xmlns:xlink="http://www.w3.org/1999/xlink" x="0px" y="0px" viewBox="0 0 558 558"
	 style="enable-background:new 0 0 558 558;" xml:space="preserve">
<style type="text/css">
	.st0{fill:#333333;}
	.st1{fill-rule:evenodd;clip-rule:evenodd;fill:#333333;}
</style>
<g>
	<path class="st0" d="M156.2,388.9c7.4,0,14.5-0.7,21.2-2.2c6.8-1.5,12.7-3.8,17.8-7.3c5-3.3,9.2-7.9,12.3-13.7
		c3.1-5.8,4.5-13.2,4.5-22.3c0-17.7-5-30.3-14.9-37.9c-9.9-7.5-23.2-11.3-39.4-11.3H75.6v94.5L156.2,388.9L156.2,388.9z M152,242.8
		c13.4,0,24.5-3.2,33.3-9.6c8.7-6.4,12.9-16.8,12.9-31.2c0-8-1.4-14.6-4.2-19.7c-2.9-5.1-6.8-9.1-11.6-11.9
		c-4.8-2.9-10.3-4.9-16.6-6c-6.2-1.2-12.7-1.7-19.4-1.7H75.6v80.2H152L152,242.8z M161.8,104.2c16.4,0,31.2,1.4,44.8,4.4
		c13.5,2.9,24.9,7.6,34.7,14.2c9.6,6.5,17.1,15.2,22.4,26.2c5.2,10.8,7.8,24.3,7.8,40.3c0,17.3-3.9,31.7-11.8,43.3
		c-7.9,11.5-19.5,21-35,28.3c21.1,6.1,36.8,16.8,47.1,32c10.4,15.3,15.5,33.6,15.5,55.1c0,17.4-3.3,32.4-10,45
		c-6.7,12.8-15.9,23.1-27.2,31.1c-11.4,8-24.4,14-39,17.8c-14.5,3.8-29.5,5.8-44.9,5.8H0V104.2L161.8,104.2L161.8,104.2z"/>
	<path class="st0" d="M473.6,257.2c-8.1-9-21.8-13.8-38.6-13.8c-10.9,0-19.9,1.8-27.2,5.6c-7.1,3.7-12.9,8.3-17.3,13.7
		c-4.4,5.5-7.4,11.3-9.2,17.5c-1.7,6-2.8,11.5-3.1,16.4h111C487.7,279.1,481.7,266.3,473.6,257.2L473.6,257.2z M395.1,387.8
		c10.2,10,25,15,44.2,15c13.8,0,25.6-3.5,35.6-10.4c9.9-6.9,15.9-14.3,18.2-22h60.1c-9.7,29.9-24.3,51.3-44.3,64.1
		c-19.8,12.9-43.9,19.3-72,19.3c-19.6,0-37.2-3.2-53-9.4c-15.8-6.3-29-15.2-40.1-26.7c-10.8-11.6-19.2-25.3-25.2-41.4
		c-5.9-16-8.9-33.8-8.9-53c0-18.6,3.1-35.9,9.2-52c6.2-16.1,14.8-30,26-41.6c11.3-11.7,24.7-21,40.3-27.7
		c15.6-6.7,32.8-10.1,51.8-10.1c21,0,39.4,4,55.2,12.3c15.7,8.1,28.6,19.2,38.8,32.9c10.1,13.8,17.3,29.5,21.8,47.2
		c4.5,17.6,6,36,4.8,55.3H378.2C378.2,359.2,384.9,377.8,395.1,387.8L395.1,387.8z"/>
	<rect x="364.3" y="127.2" class="st1" width="139.1" height="33.9"/>
</g>
</svg>
