<?xml version="1.0" encoding="utf-8"?>
<!-- Generator: Adobe Illustrator 27.3.1, SVG Export Plug-In . SVG Version: 6.00 Build 0)  -->
<svg version="1.1" id="Layer_1" xmlns:serif="http://www.serif.com/"
	 xmlns="http://www.w3.org/2000/svg" xmlns:xlink="http://www.w3.org/1999/xlink" x="0px" y="0px" viewBox="0 0 558 558"
	 style="enable-background:new 0 0 558 558;" xml:space="preserve">
<style type="text/css">
	.st0{fill:#333333;}
</style>
<path class="st0" d="M175.5,505.7c210.6,0,325.7-174.5,325.7-325.7c0-5,0-9.9-0.3-14.8c22.4-16.2,41.7-36.3,57.1-59.3
	c-20.9,9.3-43.1,15.3-65.8,18c23.9-14.3,41.8-36.8,50.3-63.3c-22.5,13.3-47.1,22.7-72.7,27.8c-21.6-23-51.9-36.1-83.5-36.1
	c-62.9,0-114.6,51.7-114.6,114.6c0,8.7,1,17.4,3,25.9c-92-4.6-177.8-48.1-235.9-119.6C8.6,125.2,24.3,192.6,74.3,226
	c-18.2-0.5-36-5.5-52-14.3v1.5c0,54.3,38.6,101.5,91.8,112.2c-16.9,4.6-34.5,5.3-51.7,2c15,46.5,58.1,78.6,107,79.5
	c-40.5,31.9-90.6,49.2-142.2,49.1c-9.1,0-18.2-0.6-27.3-1.7C52.3,487.9,113.3,505.7,175.5,505.7"/>
</svg>
