<?xml version="1.0" encoding="UTF-8"?>
<svg id="Layer_2" data-name="Layer 2" xmlns="http://www.w3.org/2000/svg" viewBox="0 0 280.41 41.63">
  <defs>
    <style>
      .cls-1 {
        fill: #333;
      }
    </style>
  </defs>
  <g id="Layer_1-2" data-name="Layer 1">
    <g>
      <path class="cls-1" d="m17.09,40.99c-4.23-.19-7.35-.29-9.35-.29-.65,0-1.52.04-2.6.12-.85.12-2,.17-3.46.17-1.12,0-1.67-.25-1.67-.75,0-.31.12-.5.35-.58.23-.08.75-.19,1.56-.35,1.46-.27,2.47-.71,3.03-1.33.56-.62.84-1.62.84-3V9.01c0-1.35-.28-2.32-.84-2.92-.56-.6-1.57-1.03-3.03-1.3-.73-.12-1.23-.24-1.5-.38-.27-.13-.4-.36-.4-.66,0-.5.56-.75,1.67-.75l3.29.06c.58.04,1.62.06,3.12.06,1.58,0,3.56-.1,5.95-.29.81-.04,1.55-.08,2.22-.12.67-.04,1.24-.06,1.7-.06,5,0,9.14.8,12.41,2.4,3.27,1.6,5.67,3.77,7.19,6.52,1.52,2.75,2.28,5.88,2.28,9.38s-.91,6.98-2.71,10.07c-1.81,3.1-4.25,5.55-7.33,7.36-3.08,1.81-6.43,2.71-10.05,2.71l-2.66-.12Zm9.9-4.1c2.33-1.46,4.14-3.49,5.43-6.09,1.29-2.6,1.93-5.55,1.93-8.86,0-3.54-.77-6.64-2.31-9.29-1.54-2.66-3.55-4.69-6.03-6.09-2.48-1.4-5.07-2.11-7.77-2.11-2.04,0-3.57.06-4.59.17-1.02.12-1.82.42-2.4.92-.58.5-.87,1.31-.87,2.42v25.75c0,2.12.78,3.54,2.34,4.27,1.56.73,3.67,1.1,6.32,1.1,2.96,0,5.61-.73,7.94-2.19Z"/>
      <path class="cls-1" d="m44.08,40.9c-.44-.4-.66-.86-.66-1.36,0-.38.06-.69.17-.92,1.65-3.35,3.54-7.77,5.66-13.28.35-1.04.75-2.1,1.21-3.18.04-.08.06-.19.06-.35,0-.23-.12-.35-.35-.35-.35,0-1.02.24-2.02.72-1,.48-1.83.97-2.48,1.47-.08.08-.21.12-.4.12-.35,0-.52-.12-.52-.35,0-.38.39-.96,1.18-1.73.79-.77,1.86-1.6,3.2-2.48,1.35-.88,2.79-1.67,4.33-2.37.31-.15.64-.12,1.01.09.37.21.65.5.87.87.21.37.28.65.2.84l-7.04,16.69c-.27.58-.4,1.14-.4,1.67,0,.46.31.69.92.69.69,0,1.51-.4,2.45-1.21.94-.81,2.24-2.04,3.9-3.7.08-.08.15-.12.23-.12.23,0,.35.1.35.29,0,.81-.62,1.9-1.85,3.26-1.23,1.37-2.67,2.59-4.3,3.67-1.64,1.08-3.01,1.62-4.13,1.62-.62,0-1.15-.2-1.59-.61Zm11.81-30.51c-.38-.46-.58-.98-.58-1.56,0-.96.31-1.79.92-2.48.62-.69,1.39-1.04,2.31-1.04.58,0,1.05.25,1.41.75.37.5.55,1.08.55,1.73,0,.89-.32,1.66-.95,2.31-.63.66-1.38.98-2.22.98-.58,0-1.06-.23-1.44-.69Z"/>
      <path class="cls-1" d="m59.41,40.7c-.62-.54-.92-1.12-.92-1.73,0-2.04,1.01-4.58,3.03-7.62,2.02-3.04,4.67-5.98,7.94-8.83,4.12-3.62,6.77-5.43,7.97-5.43.62,0,1.16.27,1.62.81.46.65.71.98.75.98l.29-.46c.77-1.31,1.1-1.89.98-1.73.23-.38.46-.58.69-.58.54,0,1.04.14,1.5.4.46.27.69.54.69.81,0,.19-.14.67-.4,1.44l-6.47,17.15c-.15.35-.23.67-.23.98,0,.66.33.98.98.98.69,0,1.53-.34,2.51-1.01.98-.67,1.84-1.49,2.57-2.45.12-.19.29-.29.52-.29.27,0,.4.21.4.63,0,.27-.27.8-.81,1.59-.54.79-1.1,1.47-1.67,2.05-1.08,1-2.17,1.77-3.26,2.31-1.1.54-2.11.81-3.03.81-.62,0-1.18-.24-1.7-.72-.52-.48-.78-.99-.78-1.53,0-.42.12-.87.35-1.33-.23.42-.18.26.14-.49.33-.75.73-1.64,1.21-2.66.48-1.02.93-1.99,1.36-2.92.19-.42.28-.74.26-.95-.02-.21-.14-.18-.38.09-3.5,3.93-6.29,6.66-8.37,8.2s-3.98,2.31-5.72,2.31c-.73,0-1.41-.27-2.02-.81Zm9.06-4.94c1.69-1.4,3.58-3.36,5.66-5.86,1.46-1.69,2.62-3.25,3.46-4.68.85-1.42,1.27-2.48,1.27-3.18,0-.31-.25-.67-.75-1.1-.58-.42-1.06-.63-1.44-.63-.69,0-1.65.35-2.86,1.04-1.21.69-2.32,1.52-3.32,2.48-1.96,1.93-3.71,4.09-5.22,6.5-1.52,2.41-2.28,4.26-2.28,5.57,0,.58.15,1.05.46,1.41.31.37.71.55,1.21.55.85,0,2.12-.7,3.81-2.11Z"/>
      <path class="cls-1" d="m88.59,40.96c-.33-.44-.49-.9-.49-1.36,0-.12.04-.29.12-.52l6.7-16.4c.38-.89.58-1.56.58-2.02,0-.35-.15-.52-.46-.52-.73,0-1.42.17-2.05.52-.63.35-1.38,1.06-2.22,2.14-.12.15-.27.23-.46.23-.23,0-.37-.15-.4-.46-.04-.31.08-.76.35-1.36.27-.6.56-1.11.87-1.53.58-.88,1.37-1.58,2.37-2.08,1-.5,2.14-.77,3.41-.81.54,0,1.01.17,1.42.52.4.35.61.79.61,1.33,0,.12-.04.33-.12.63l-3.81,9.81-.06.23c0,.15.08.23.23.23s.27-.08.35-.23c2.31-3.93,4.68-6.99,7.13-9.21,2.44-2.21,4.57-3.32,6.38-3.32.92,0,1.7.35,2.34,1.04.63.69.95,1.6.95,2.71,0,.85-.19,1.71-.58,2.6l-5.31,12.59c-.23.62-.35,1.08-.35,1.39,0,.46.21.69.64.69.81,0,1.96-.51,3.46-1.53,1.5-1.02,2.54-1.82,3.12-2.4.04-.04.1-.06.17-.06.12,0,.22.05.32.14.1.1.14.22.14.38,0,.31-.08.58-.23.81-1.58,1.93-3.27,3.46-5.08,4.62-1.81,1.15-3.58,1.73-5.31,1.73-.46,0-.9-.19-1.3-.58-.4-.38-.61-.83-.61-1.33,0-.27.04-.48.12-.63l1.15-2.6c.38-.85,1.16-2.63,2.34-5.34,1.17-2.71,2.2-5.21,3.09-7.48.46-1.27.69-2.21.69-2.83,0-1-.4-1.5-1.21-1.5-.66,0-1.48.38-2.48,1.13s-2.1,1.88-3.29,3.38c-.92,1.12-2.42,3.28-4.5,6.5-2.08,3.21-4.02,6.42-5.83,9.61-.35.66-.65,1.12-.92,1.39-.27.27-.56.4-.87.4-.39,0-.74-.22-1.07-.66Z"/>
      <path class="cls-1" d="m120.11,40.64c-.83-.62-1.51-1.39-2.05-2.34-.54-.94-.81-1.86-.81-2.74,0-2.62.7-5.4,2.11-8.34,1.4-2.94,3.27-5.42,5.6-7.42,2.33-2,4.78-3,7.36-3,1.35,0,2.4.28,3.15.84.75.56,1.13,1.34,1.13,2.34,0,2.19-1.21,3.91-3.64,5.14-2.42,1.23-5.6,2.21-9.53,2.94-.04,0-.13.02-.29.06-.15.04-.28.1-.38.17-.1.08-.17.19-.2.35-.81,2.35-1.21,4.21-1.21,5.6s.26,2.39.78,3.12c.52.73,1.28,1.1,2.28,1.1,1.23,0,2.31-.29,3.23-.87s1.81-1.33,2.66-2.25c.38-.42.73-.64,1.04-.64.38,0,.58.19.58.58,0,.19-.04.35-.12.46-1.16,1.89-2.52,3.33-4.1,4.33-1.58,1-3.29,1.5-5.14,1.5-.81,0-1.63-.31-2.45-.92Zm7.19-14.69c1.54-.52,2.92-1.28,4.13-2.28,1.21-1,1.82-2.19,1.82-3.58,0-.5-.14-.93-.43-1.3-.29-.37-.66-.55-1.12-.55-.96,0-2.09.54-3.38,1.62-1.29,1.08-2.42,2.29-3.41,3.64-.98,1.35-1.47,2.31-1.47,2.89,0,.15.04.25.12.29.08.04.17.06.29.06.77,0,1.92-.26,3.46-.78Z"/>
      <path class="cls-1" d="m148.03,40.79c-.31-.13-.46-.32-.46-.55,0-.5.63-.94,1.91-1.33,1.12-.35,2.08-.84,2.89-1.47.81-.64,1.5-1.63,2.08-2.97,2.04-4.7,3.82-8.96,5.34-12.79,1.52-3.83,3.34-8.61,5.46-14.35.42-1.19.69-2.31.81-3.35.12-.04.39-.12.84-.26.44-.13.86-.34,1.24-.61.31-.23.55-.58.72-1.04.17-.46.3-.77.38-.92.04-.04.09-.05.14-.03.06.02.11.05.14.09.08.19.14.4.2.63s.12.44.2.64c2.85,8.97,6.27,19.25,10.28,30.83.73,2.12,1.54,3.55,2.42,4.3.88.75,2.02,1.24,3.41,1.47.62.12,1.09.3,1.42.55.33.25.49.51.49.78,0,.38-.56.58-1.67.58l-3.12-.12c-2.16-.15-3.79-.23-4.91-.23l-6.06.06c-1.12,0-1.67-.23-1.67-.69,0-.23.18-.45.55-.66.37-.21.82-.36,1.36-.43,2.35-.38,3.52-1.25,3.52-2.6,0-1.23-.75-4.35-2.25-9.35-.08-.27-.22-.44-.43-.52-.21-.08-.59-.12-1.13-.12h-10.91c-.42,0-.75.35-.98,1.04-.42,1.23-.92,2.84-1.5,4.82-.58,1.98-.87,3.15-.87,3.49,0,.81.32,1.5.95,2.08.64.58,1.43.98,2.4,1.21.69.19,1.18.37,1.47.52.29.15.43.37.43.64,0,.42-.56.63-1.67.63-.69,0-1.27-.02-1.73-.06l-3.52-.06c-.66,0-1.38.03-2.17.09-.79.06-1.38.09-1.76.09-1.08.12-2.08.17-3,.17-.5,0-.9-.07-1.21-.2Zm23.67-16.37c.23,0,.42-.02.58-.06.15-.04.23-.12.23-.23l-.12-.58-4.5-14.09c-.23-.69-.4-1.04-.52-1.04-.08,0-.23.33-.46.98l-5.25,14.14-.12.46c0,.19.09.31.26.35.17.04.49.06.95.06h8.95Z"/>
      <path class="cls-1" d="m212.11,34.52c-.19.69-.29,1.29-.29,1.79,0,.85.27,1.27.81,1.27.73,0,1.67-.39,2.8-1.18,1.13-.79,2.09-1.72,2.86-2.8.15-.19.31-.29.46-.29.31,0,.42.15.35.46,0,.69-.55,1.67-1.65,2.92-1.1,1.25-2.34,2.37-3.72,3.35-1.39.98-2.48,1.47-3.29,1.47-.62,0-1.19-.27-1.73-.81s-.81-1.13-.81-1.79c0-.19.08-.69.23-1.5l1.04-4.73c.04-.27.02-.45-.06-.55-.08-.1-.17-.07-.29.09-2.66,3.35-4.98,5.74-6.99,7.16-2,1.42-4.04,2.14-6.12,2.14-1.12,0-2.02-.39-2.71-1.15-.69-.77-1.04-1.77-1.04-3,0-2.15.68-4.69,2.05-7.59,1.37-2.91,3.11-5.55,5.23-7.94,1.5-1.69,3.02-3.01,4.56-3.95,1.54-.94,2.92-1.41,4.16-1.41.5,0,.91.07,1.24.2.33.14,1.01.55,2.05,1.24.92.58,1.41.89,1.44.92l.23-.4,3.87-12.99c.15-.62.23-1,.23-1.15,0-.42-.12-.76-.35-1.01-.23-.25-.66-.49-1.27-.72-.66-.23-1.11-.39-1.36-.49-.25-.1-.38-.2-.38-.32,0-.27.15-.48.46-.64.31-.15.81-.29,1.5-.4,3.16-.46,4.94-.69,5.37-.69.46,0,.69.27.69.81,0,.42-.08.87-.23,1.33l-9.35,32.39Zm-8.49,1.36c2.19-1.94,4.08-4.25,5.66-6.93,1.58-2.67,2.37-5.03,2.37-7.07,0-1.12-.25-1.99-.75-2.63-.5-.63-1.21-.95-2.14-.95-1.42,0-3.16,1.09-5.2,3.26-2.04,2.17-3.83,4.73-5.37,7.65-1.54,2.93-2.31,5.39-2.31,7.39,0,.85.14,1.42.43,1.73.29.31.8.46,1.53.46,1.65,0,3.58-.97,5.77-2.92Z"/>
      <path class="cls-1" d="m224.03,39.52c-1.06-1.33-1.59-2.84-1.59-4.53,0-2.46.63-5.13,1.91-8,1.27-2.87,2.97-5.28,5.11-7.25s4.42-2.94,6.84-2.94c1.88,0,3.37.65,4.45,1.93,1.08,1.29,1.62,2.92,1.62,4.88,0,2.42-.63,5.04-1.88,7.85-1.25,2.81-3,5.19-5.25,7.13-2.25,1.94-4.76,2.92-7.53,2.92-1.39,0-2.61-.66-3.67-1.99Zm9.15-2.77c1.58-2.02,2.89-4.45,3.93-7.27,1.04-2.83,1.56-5.32,1.56-7.48,0-1.12-.18-1.97-.55-2.57-.37-.6-1.01-.9-1.93-.9-1.42,0-2.92.93-4.5,2.8-1.58,1.87-2.9,4.2-3.96,6.99-1.06,2.79-1.59,5.42-1.59,7.88s.83,3.58,2.48,3.58c1.46,0,2.98-1.01,4.56-3.03Z"/>
      <path class="cls-1" d="m245.54,40.76c-.54-.5-.81-.96-.81-1.39,0-.69.12-1.36.35-1.99.23-.63.38-1.05.46-1.24l5.49-15.42.06-.23c0-.31-.21-.46-.63-.46l-2.31-.12c-.69-.04-1.04-.31-1.04-.81,0-.15.21-.42.63-.81.42-.38.87-.58,1.33-.58h2.08c.38,0,.66-.06.84-.17.17-.12.36-.4.55-.87l1.39-2.83c.23-.46.73-1.01,1.5-1.65.77-.63,1.31-.95,1.62-.95.19,0,.35.1.46.29.12.19.17.44.17.75s-.06.58-.17.81l-1.5,3.87-.06.23c0,.15.07.26.2.32.13.06.34.09.61.09,1.04,0,2.48.15,4.33.46.58.12.94.23,1.1.35.15.12.23.29.23.52,0,.12-.09.25-.26.4-.17.15-.45.25-.84.29-2.35.15-3.96.25-4.85.29-1,.04-1.6.33-1.79.87l-5.14,14.2c-.15.42-.23.83-.23,1.21,0,.73.42,1.1,1.27,1.1.69,0,1.45-.31,2.28-.92.83-.62,1.72-1.39,2.68-2.31.38-.38.75-.58,1.1-.58.31,0,.46.14.46.4,0,.5-.35,1.14-1.04,1.91-1.42,1.54-3.07,2.88-4.94,4.01s-3.2,1.7-4.01,1.7c-.5,0-1.02-.25-1.56-.75Z"/>
      <path class="cls-1" d="m263.93,40.64c-.83-.62-1.51-1.39-2.05-2.34-.54-.94-.81-1.86-.81-2.74,0-2.62.7-5.4,2.11-8.34,1.4-2.94,3.27-5.42,5.6-7.42,2.33-2,4.78-3,7.36-3,1.35,0,2.4.28,3.15.84.75.56,1.13,1.34,1.13,2.34,0,2.19-1.21,3.91-3.64,5.14-2.42,1.23-5.6,2.21-9.53,2.94-.04,0-.13.02-.29.06-.15.04-.28.1-.38.17-.1.08-.17.19-.2.35-.81,2.35-1.21,4.21-1.21,5.6s.26,2.39.78,3.12c.52.73,1.28,1.1,2.28,1.1,1.23,0,2.31-.29,3.23-.87s1.81-1.33,2.66-2.25c.38-.42.73-.64,1.04-.64.38,0,.58.19.58.58,0,.19-.04.35-.12.46-1.16,1.89-2.52,3.33-4.1,4.33-1.58,1-3.29,1.5-5.14,1.5-.81,0-1.63-.31-2.45-.92Zm7.19-14.69c1.54-.52,2.92-1.28,4.13-2.28,1.21-1,1.82-2.19,1.82-3.58,0-.5-.14-.93-.43-1.3-.29-.37-.66-.55-1.12-.55-.96,0-2.09.54-3.38,1.62-1.29,1.08-2.42,2.29-3.41,3.64-.98,1.35-1.47,2.31-1.47,2.89,0,.15.04.25.12.29.08.04.17.06.29.06.77,0,1.92-.26,3.46-.78Z"/>
    </g>
  </g>
</svg>